PathFileType	4	(X/Y/Z)	..\data\2015007\dynamic\2015007_C5_03.trc
DataRate	CameraRate	NumFrames	NumMarkers	Units	OrigDataRate	OrigDataStartFrame	OrigNumFrames
100.000000	100.000000	4	52	mm	100.000000	104	139
Frame#	Time	L_IAS			L_IPS			R_IPS			R_IAS			L_FTC			L_FLE			L_FME			L_FAX			L_TTC			L_FAL			L_TAM			L_FCC			L_FM1			L_FM2			L_FM5			R_FTC			R_FLE			R_FME			R_FAX			R_TTC			R_FAL			R_TAM			R_FCC			R_FM1			R_FM2			R_FM5			CV7			TV10			SXS			SJN			L_SIA			L_SRS			L_SAA			L_SAE			L_HLE			L_HME			L_UOA			L_RSP			L_UHE			L_HM2			L_HM5			R_SIA			R_SRS			R_SAA			R_SAE			R_HLE			R_HME			R_UOA			R_RSP			R_UHE			R_HM2			R_HM5			
		X1	Y1	Z1	X2	Y2	Z2	X3	Y3	Z3	X4	Y4	Z4	X5	Y5	Z5	X6	Y6	Z6	X7	Y7	Z7	X8	Y8	Z8	X9	Y9	Z9	X10	Y10	Z10	X11	Y11	Z11	X12	Y12	Z12	X13	Y13	Z13	X14	Y14	Z14	X15	Y15	Z15	X16	Y16	Z16	X17	Y17	Z17	X18	Y18	Z18	X19	Y19	Z19	X20	Y20	Z20	X21	Y21	Z21	X22	Y22	Z22	X23	Y23	Z23	X24	Y24	Z24	X25	Y25	Z25	X26	Y26	Z26	X27	Y27	Z27	X28	Y28	Z28	X29	Y29	Z29	X30	Y30	Z30	X31	Y31	Z31	X32	Y32	Z32	X33	Y33	Z33	X34	Y34	Z34	X35	Y35	Z35	X36	Y36	Z36	X37	Y37	Z37	X38	Y38	Z38	X39	Y39	Z39	X40	Y40	Z40	X41	Y41	Z41	X42	Y42	Z42	X43	Y43	Z43	X44	Y44	Z44	X45	Y45	Z45	X46	Y46	Z46	X47	Y47	Z47	X48	Y48	Z48	X49	Y49	Z49	X50	Y50	Z50	X51	Y51	Z51	X52	Y52	Z52	

105	1.04	1420.689331054688	875.650085449219	-367.0017089843751	1210.267211914063	893.9763183593752	-281.1600341796876	1222.626953125	906.8750000000002	-174.8054504394532	1441.696655273438	900.0606689453127	-121.5097122192383	1332.351440429688	768.1162109375002	-417.6376953125001	1357.75634765625	406.4472045898439	-379.8843994140626	1386.9794921875	379.1210632324219	-262.7153930664063	1313.097778320313	374.0485839843751	-384.2610778808595	1355.68505859375	326.9168395996094	-345.9526977539063	1055.533813476563	193.0650177001954	-328.4114685058594	1087.201538085938	165.8110961914063	-256.2134704589844	1009.33251953125	199.2740783691407	-261.2508850097657	1070.134521484375	47.46512603759766	-279.9148559570313	1071.452026367188	55.30150604248048	-326.2157897949219	1026.932006835938	92.8893280029297	-356.6191406250001	1366.124633789063	800.6213378906252	-47.25342559814454	1497.871459960938	442.8200073242189	-122.7592315673828	1481.10107421875	429.4323120117189	-247.3778076171876	1491.5166015625	386.391571044922	-117.6295242309571	1534.6298828125	381.4910583496094	-169.2547454833985	1458.444213867188	60.61560821533205	-150.6587524414063	1478.688598632813	76.34152221679689	-235.6631774902344	1410.113891601563	13.98604679107666	-199.7639770507813	1588.227661132813	17.50082206726075	-227.9693145751954	1586.733032226563	27.88916397094727	-183.7397155761719	1538.356323242188	8.017806053161623	-128.463363647461	1321.746704101563	1391.008544921875	-218.9527740478516	1218.852416992188	1154.704467773438	-247.8754119873047	1497.96728515625	1055.966430664063	-242.9906005859376	1432.957885742188	1307.322387695313	-230.3309478759766	1220.928466796875	1204.997314453125	-331.1459045410157	1265.73193359375	1332.283081054688	-331.6540527343751	1310.840087890625	1337.783569335938	-392.445526123047	1360.325317382813	1347.031005859375	-404.7048950195314	1319.956298828125	1039.654541015625	-494.3466796875001	1292.380004882813	1026.624145507813	-420.2285156250001	1290.029296875	1010.237243652344	-468.7772521972657	1446.49609375	834.1041259765627	-467.4359741210939	1380.669921875	816.4929809570315	-507.8676147460939	1484.029174804688	781.7960205078127	-483.208221435547	1395.487670898438	756.6730957031251	-510.9713134765626	1216.760131835938	1192.291870117188	-162.9873962402344	1262.947143554688	1314.117797851563	-151.4622802734375	1314.976318359375	1313.482666015625	-79.38809967041017	1360.928466796875	1316.216064453125	-63.22042465209962	1323.807983398438	998.7302246093752	11.9166488647461	1293.991577148438	986.1363525390627	-54.41699218750001	1297.621337890625	971.4924926757815	-7.876333236694338	1388.376953125	780.0754394531252	32.10598754882813	1339.1171875	788.5720214843752	68.37434387207033	1400.805541992188	697.7566528320314	49.69080352783205	1330.1220703125	724.0294799804689	87.02241516113283	
106	1.05	1435.985473632813	878.989196777344	-365.8523864746094	1225.202392578125	896.9298095703127	-280.3439331054688	1237.252319335938	909.614196777344	-174.3186492919922	1455.976684570313	902.7801513671877	-119.7147064208985	1349.053466796875	771.1832275390627	-416.6944885253907	1386.948974609375	410.4757385253907	-379.6453552246094	1418.112915039063	383.4242858886719	-262.6007385253907	1343.141479492188	378.1681518554688	-383.6935729980469	1386.595092773438	330.9618835449219	-345.6932373046876	1087.745483398438	194.9544677734376	-327.7484130859376	1119.825927734375	167.5523529052735	-255.804916381836	1040.896484375	198.5724792480469	-260.7775268554688	1106.76171875	49.64021301269533	-282.4949035644532	1107.6484375	58.35829162597658	-328.4211120605469	1062.216796875	95.47409057617189	-357.9398803710938	1378.967041015625	802.6704101562502	-46.46960830688477	1503.432739257813	442.280487060547	-122.3550872802735	1486.6240234375	429.3079833984376	-247.1060791015626	1495.863403320313	385.8520507812501	-117.3500366210938	1539.171875	380.5079650878907	-168.6685638427735	1458.579467773438	60.9132766723633	-150.8482360839844	1478.96484375	76.67135620117189	-235.7065124511719	1410.454345703125	14.13999080657959	-199.9201202392579	1588.404418945313	18.12780380249024	-227.8404388427735	1586.876953125	28.7213249206543	-183.4571838378907	1538.504028320313	8.721039772033693	-128.13671875	1336.809448242188	1394.0302734375	-219.0986480712891	1233.736328125	1157.706665039063	-247.2346496582032	1511.951904296875	1059.069946289063	-243.3757934570313	1447.921508789063	1310.25244140625	-230.617660522461	1235.671752929688	1207.80908203125	-330.4797363281251	1280.410034179688	1335.101928710938	-331.3979797363282	1325.331298828125	1340.540161132813	-392.3665161132814	1374.612426757813	1349.818969726563	-404.8652648925782	1332.01806640625	1042.5322265625	-493.3806457519532	1304.427856445313	1030.158813476563	-419.1643066406251	1301.57177734375	1013.827941894531	-467.7442626953126	1453.50732421875	833.7376708984377	-466.3424072265626	1387.365356445313	818.2851562500002	-507.4383544921876	1489.372924804688	780.040222167969	-481.4980773925782	1400.455078125	758.0307617187501	-510.4992980957032	1231.821655273438	1195.494750976563	-162.398910522461	1278.043212890625	1317.33984375	-151.2659759521485	1330.185180664063	1316.909912109375	-79.26119995117189	1376.447265625	1319.500610351563	-63.31478500366212	1343.160278320313	1001.182983398438	11.77538013458252	1312.886352539063	988.4472656250002	-54.44812011718751	1317.098022460938	973.418395996094	-7.833352088928224	1412.822387695313	783.8151855468752	29.99137115478516	1363.648681640625	790.967224121094	66.8771209716797	1427.626831054688	702.0567016601564	47.34533691406251	1356.664794921875	726.4946899414064	85.54335784912111	
107	1.06	1451.072021484375	882.8388671875002	-364.9146118164063	1240.050415039063	900.1495361328127	-279.3941955566407	1251.868408203125	912.4050903320315	-173.7801513671875	1470.182250976563	905.4194335937502	-118.0199966430664	1365.374145507813	774.7102661132815	-415.8558044433595	1415.946044921875	415.1531066894532	-379.2904357910157	1448.574096679688	388.6782226562501	-262.2509765625001	1373.025634765625	382.6935424804688	-382.9846801757813	1417.505859375	335.6545410156251	-345.2380371093751	1120.858276367188	195.3766479492188	-327.3221435546876	1153.374633789063	168.2295379638672	-255.5397186279297	1073.154418945313	195.925033569336	-260.7381896972657	1145.719360351563	50.96130371093751	-284.9047241210938	1146.193969726563	60.62788009643556	-330.4991149902344	1099.626708984375	96.40847015380862	-359.3526916503907	1391.59375	804.5197753906252	-45.89162826538087	1508.064819335938	441.7078552246095	-121.9995956420899	1491.312133789063	429.0718994140626	-246.9582672119141	1499.332275390625	385.2989501953126	-117.1245422363282	1542.902954101563	379.5591735839844	-168.1306915283203	1458.615112304688	61.14748001098634	-151.0494689941407	1479.173095703125	76.95377349853517	-235.7309570312501	1410.70947265625	14.23347854614258	-200.1367645263672	1588.531372070313	18.72587776184082	-227.702865600586	1586.947265625	29.46783447265626	-183.2091064453125	1538.61376953125	9.283664703369142	-127.8986053466797	1351.754638671875	1397.122680664063	-219.2975311279297	1248.536743164063	1160.74560546875	-246.3873291015626	1525.307983398438	1062.576293945313	-243.9123992919922	1462.78173828125	1313.31201171875	-230.9658660888672	1250.26611328125	1210.608276367188	-329.6617431640626	1294.917114257813	1337.9208984375	-331.1011352539063	1339.543212890625	1343.26171875	-392.2640075683595	1388.578002929688	1352.640747070313	-405.0737304687501	1343.742553710938	1045.536254882813	-492.491668701172	1316.235961914063	1033.822143554688	-418.1590576171876	1312.838745117188	1017.560485839844	-466.8128051757814	1460.09521484375	833.6399536132815	-465.2673339843751	1393.774169921875	820.3159790039065	-507.0797729492189	1494.301635742188	778.621032714844	-479.7265625000001	1405.139282226563	759.6601562500001	-510.0125427246095	1246.802612304688	1198.801391601563	-161.696762084961	1293.051391601563	1320.683227539063	-151.0885314941407	1345.28564453125	1320.529418945313	-79.19561004638673	1391.851684570313	1323.005004882813	-63.47266769409181	1362.379638671875	1003.890991210938	11.63328838348389	1331.6005859375	991.0223388671877	-54.49714279174806	1336.436157226563	975.5440673828127	-7.774953842163088	1437.501220703125	788.0404052734377	27.56539535522462	1388.440673828125	793.6918945312502	65.07258605957033	1454.99365234375	706.9917602539064	44.60921859741212	1383.72900390625	729.3096313476564	83.68865966796876	
108	1.07	1465.985107421875	887.0730590820315	-364.1746215820313	1254.849243164063	903.5205078125002	-278.3829650878907	1266.504272460938	915.2073364257815	-173.214584350586	1484.365112304688	907.955261230469	-116.4752502441407	1381.382690429688	778.5339965820315	-415.1395568847657	1444.668823242188	420.3334350585939	-378.8292846679688	1478.338500976563	394.6784667968751	-261.6933288574219	1402.68017578125	387.4541625976564	-382.1763610839844	1448.312377929688	340.8621520996094	-344.6311950683594	1154.773071289063	194.2794952392579	-327.1859130859376	1187.76220703125	167.7668151855469	-255.4762268066407	1106.113159179688	191.4202423095703	-261.1461486816407	1186.600219726563	51.35158538818361	-287.1139831542969	1186.679809570313	61.97379302978517	-332.4146728515626	1138.817260742188	95.67055511474611	-360.8439025878907	1404.105590820313	806.1854248046877	-45.51127243041993	1511.917236328125	441.1492309570314	-121.6886825561524	1495.288696289063	428.7683105468751	-246.9197082519532	1502.0859375	384.781707763672	-116.9419403076172	1545.96533203125	378.6720581054688	-167.6507720947266	1458.59521484375	61.31571197509767	-151.264877319336	1479.33642578125	77.17697906494142	-235.7527313232422	1410.872680664063	14.29180240631104	-200.4002838134766	1588.623413085938	19.19798660278321	-227.5844268798829	1586.9775390625	30.04618072509766	-183.0129852294922	1538.685791015625	9.666244506835939	-127.7491760253907	1366.6142578125	1400.200073242188	-219.5236053466797	1263.29638671875	1163.742309570313	-245.3407897949219	1538.149169921875	1066.421508789063	-244.535629272461	1477.569213867188	1316.4111328125	-231.3483276367188	1264.739990234375	1213.328857421875	-328.6975708007813	1309.293334960938	1340.6708984375	-330.7510986328126	1353.522094726563	1345.88330078125	-392.1231689453126	1402.275146484375	1355.419555664063	-405.3018188476564	1355.149536132813	1048.59912109375	-491.6729431152345	1327.830810546875	1037.543090820313	-417.202606201172	1323.86083984375	1021.364074707031	-465.9729309082032	1466.325317382813	833.7709960937502	-464.2335205078126	1399.965087890625	822.519470214844	-506.7887268066407	1498.898559570313	777.5153808593752	-477.9484252929689	1409.605346679688	761.5014648437501	-509.5143127441407	1261.74609375	1202.111938476563	-160.8789672851563	1308.009521484375	1324.046142578125	-150.9127807617188	1360.320068359375	1324.228515625	-79.17293548583986	1407.167724609375	1326.627685546875	-63.67244720458986	1381.442260742188	1006.765563964844	11.5198974609375	1350.120483398438	993.7666015625002	-54.52822494506837	1355.623901367188	977.7836914062502	-7.672603130340578	1462.345458984375	792.6893310546877	24.85715866088868	1413.439453125	796.692321777344	62.98067474365236	1482.797241210938	712.5064697265626	41.4872169494629	1411.229614257813	732.4208374023439	81.44863128662111	
